<svg width="127" height="118" viewBox="0 0 127 118" fill="none" xmlns="http://www.w3.org/2000/svg">
<g id="Group 1" filter="url(#filter0_d_33_10610)">
<path id="Vector 4" d="M77.6382 8L28.9573 46.5553L50.3769 59.407L100.616 17.3467L77.6382 8Z" fill="url(#paint0_linear_33_10610)"/>
<g id="Vector 5">
<path d="M20 64.8592L28.9573 46.5552L50.3769 59.407L100.616 17.3467L106.847 28.2512L49.2085 85.4999L20 64.8592Z" fill="#D9D9D9"/>
<path d="M20 64.8592L28.9573 46.5552L50.3769 59.407L100.616 17.3467L106.847 28.2512L49.2085 85.4999L20 64.8592Z" fill="url(#paint1_linear_33_10610)"/>
</g>
<g id="Vector 6">
<path d="M28.9573 46.5552L20 64.8592L49.2085 85.4999L50.3769 59.4069L28.9573 46.5552Z" fill="#D9D9D9"/>
<path d="M28.9573 46.5552L20 64.8592L49.2085 85.4999L50.3769 59.4069L28.9573 46.5552Z" fill="url(#paint2_linear_33_10610)"/>
</g>
</g>
<defs>
<filter id="filter0_d_33_10610" x="0" y="0" width="126.847" height="117.5" filterUnits="userSpaceOnUse" color-interpolation-filters="sRGB">
<feFlood flood-opacity="0" result="BackgroundImageFix"/>
<feColorMatrix in="SourceAlpha" type="matrix" values="0 0 0 0 0 0 0 0 0 0 0 0 0 0 0 0 0 0 127 0" result="hardAlpha"/>
<feOffset dy="12"/>
<feGaussianBlur stdDeviation="10"/>
<feComposite in2="hardAlpha" operator="out"/>
<feColorMatrix type="matrix" values="0 0 0 0 0.60236 0 0 0 0 0.277018 0 0 0 0 1 0 0 0 0.46 0"/>
<feBlend mode="normal" in2="BackgroundImageFix" result="effect1_dropShadow_33_10610"/>
<feBlend mode="normal" in="SourceGraphic" in2="effect1_dropShadow_33_10610" result="shape"/>
</filter>
<linearGradient id="paint0_linear_33_10610" x1="64.7864" y1="29.4785" x2="64.7864" y2="88.9836" gradientUnits="userSpaceOnUse">
<stop stop-color="#9A47FF"/>
<stop offset="1" stop-color="#111111"/>
</linearGradient>
<linearGradient id="paint1_linear_33_10610" x1="63.4234" y1="45.8219" x2="63.4234" y2="124.711" gradientUnits="userSpaceOnUse">
<stop stop-color="#9A47FF"/>
<stop offset="1" stop-color="#111111"/>
</linearGradient>
<linearGradient id="paint2_linear_33_10610" x1="35.1884" y1="62.8267" x2="35.1884" y2="107.906" gradientUnits="userSpaceOnUse">
<stop stop-color="#9A47FF"/>
<stop offset="1" stop-color="#111111"/>
</linearGradient>
</defs>
</svg>
