<svg width="25" height="24" viewBox="0 0 25 24" fill="none" xmlns="http://www.w3.org/2000/svg">
<path d="M22.25 8.5C22.25 11.76 19.85 14.45 16.73 14.92V14.86C16.42 10.98 13.27 7.83 9.36002 7.52H9.33002C9.80002 4.4 12.49 2 15.75 2C19.34 2 22.25 4.91 22.25 8.5Z" fill="#9A47FF"/>
<path d="M15.23 14.98C14.98 11.81 12.44 9.27 9.27 9.02C9.1 9.01 8.92 9 8.75 9C5.16 9 2.25 11.91 2.25 15.5C2.25 19.09 5.16 22 8.75 22C12.34 22 15.25 19.09 15.25 15.5C15.25 15.33 15.24 15.15 15.23 14.98ZM9.63 16.38L8.75 18L7.87 16.38L6.25 15.5L7.87 14.62L8.75 13L9.63 14.62L11.25 15.5L9.63 16.38Z" fill="#9A47FF"/>
</svg>
