<svg width="25" height="24" viewBox="0 0 25 24" fill="none" xmlns="http://www.w3.org/2000/svg">
<path d="M22.25 8.5C22.25 12.09 19.34 15 15.75 15C15.58 15 15.4 14.99 15.23 14.98C14.98 11.81 12.44 9.26999 9.26999 9.01999C9.25999 8.84999 9.25 8.67 9.25 8.5C9.25 4.91 12.16 2 15.75 2C19.34 2 22.25 4.91 22.25 8.5Z" stroke="#111111" stroke-width="1.5" stroke-linecap="round" stroke-linejoin="round"/>
<path d="M15.25 15.5C15.25 19.09 12.34 22 8.75 22C5.16 22 2.25 19.09 2.25 15.5C2.25 11.91 5.16 9 8.75 9C8.92 9 9.09999 9.00999 9.26999 9.01999C12.44 9.26999 14.98 11.81 15.23 14.98C15.24 15.15 15.25 15.33 15.25 15.5Z" stroke="#111111" stroke-width="1.5" stroke-linecap="round" stroke-linejoin="round"/>
<path d="M7.87 14.62L8.75 13L9.63 14.62L11.25 15.5L9.63 16.38L8.75 18L7.87 16.38L6.25 15.5L7.87 14.62Z" stroke="#111111" stroke-width="1.5" stroke-linecap="round" stroke-linejoin="round"/>
</svg>
