<svg width="25" height="24" viewBox="0 0 25 24" fill="none" xmlns="http://www.w3.org/2000/svg">
<path d="M20.79 6.82018L15.03 2.79018C13.46 1.69018 11.05 1.75018 9.53999 2.92018L4.52999 6.83018C3.52999 7.61018 2.73999 9.21018 2.73999 10.4702V17.3702C2.73999 19.9202 4.80999 22.0002 7.35999 22.0002H18.14C20.69 22.0002 22.76 19.9302 22.76 17.3802V10.6002C22.76 9.25018 21.89 7.59018 20.79 6.82018ZM13.5 18.0002C13.5 18.4102 13.16 18.7502 12.75 18.7502C12.34 18.7502 12 18.4102 12 18.0002V15.0002C12 14.5902 12.34 14.2502 12.75 14.2502C13.16 14.2502 13.5 14.5902 13.5 15.0002V18.0002Z" fill="#9A47FF"/>
</svg>
