<svg width="25" height="24" viewBox="0 0 25 24" fill="none" xmlns="http://www.w3.org/2000/svg">
<path d="M12.25 2C6.74 2 2.25 6.49 2.25 12C2.25 17.51 6.74 22 12.25 22C17.76 22 22.25 17.51 22.25 12C22.25 6.49 17.76 2 12.25 2ZM8.25 13C7.69 13 7.25 12.55 7.25 12C7.25 11.45 7.7 11 8.25 11C8.8 11 9.25 11.45 9.25 12C9.25 12.55 8.81 13 8.25 13ZM12.25 13C11.69 13 11.25 12.55 11.25 12C11.25 11.45 11.7 11 12.25 11C12.8 11 13.25 11.45 13.25 12C13.25 12.55 12.81 13 12.25 13ZM16.25 13C15.69 13 15.25 12.55 15.25 12C15.25 11.45 15.7 11 16.25 11C16.8 11 17.25 11.45 17.25 12C17.25 12.55 16.81 13 16.25 13Z" fill="#9A47FF"/>
</svg>
