<svg width="25" height="24" viewBox="0 0 25 24" fill="none" xmlns="http://www.w3.org/2000/svg">
<path d="M22.75 2.75H2.75C2.34 2.75 2 2.41 2 2C2 1.59 2.34 1.25 2.75 1.25H22.75C23.16 1.25 23.5 1.59 23.5 2C23.5 2.41 23.16 2.75 22.75 2.75Z" fill="#9A47FF"/>
<path d="M17.42 22.34C17.29 22.6 17.02 22.75 16.75 22.75C16.64 22.75 16.52 22.72 16.42 22.67L12.75 20.84L9.08001 22.67C8.98001 22.72 8.86001 22.75 8.75001 22.75C8.48001 22.75 8.21001 22.6 8.08001 22.34C7.89001 21.96 8.04001 21.51 8.42001 21.33L12 19.54V17H13.5V19.54L17.08 21.33C17.46 21.51 17.61 21.96 17.42 22.34Z" fill="#9A47FF"/>
<path d="M3.75 2V14.1C3.75 16 4.75 17 6.65 17H18.85C20.75 17 21.75 16 21.75 14.1V2H3.75ZM17.73 8.58L14.58 11.21C14.29 11.45 13.92 11.55 13.57 11.49C13.21 11.43 12.9 11.21 12.71 10.89L11.66 9.14L8.73 11.58C8.59 11.7 8.42 11.75 8.25 11.75C8.04 11.75 7.82 11.66 7.67 11.48C7.4 11.16 7.45 10.69 7.77 10.42L10.92 7.79C11.21 7.55 11.58 7.45 11.93 7.51C12.29 7.57 12.6 7.79 12.79 8.11L13.84 9.86L16.77 7.42C17.09 7.15 17.56 7.2 17.83 7.52C18.09 7.84 18.05 8.31 17.73 8.58Z" fill="#9A47FF"/>
</svg>
