<svg width="24" height="24" viewBox="0 0 24 24" fill="none" xmlns="http://www.w3.org/2000/svg">
<path d="M20.36 12.7296C19.99 12.7296 19.68 12.4496 19.64 12.0796C19.4 9.87958 18.22 7.89958 16.4 6.63958C16.07 6.40958 15.99 5.95958 16.22 5.62958C16.45 5.29958 16.9 5.21958 17.23 5.44958C19.4 6.95958 20.8 9.31958 21.09 11.9296C21.13 12.3296 20.84 12.6896 20.44 12.7296C20.41 12.7296 20.39 12.7296 20.36 12.7296Z" fill="#292D32"/>
<path d="M3.74004 12.7802C3.72004 12.7802 3.69004 12.7802 3.67004 12.7802C3.27004 12.7402 2.98004 12.3802 3.02004 11.9802C3.29004 9.3702 4.67004 7.0102 6.82004 5.4902C7.14004 5.2602 7.60004 5.3402 7.83004 5.6602C8.06004 5.9902 7.98004 6.4402 7.66004 6.6702C5.86004 7.9502 4.69004 9.9302 4.47004 12.1202C4.43004 12.5002 4.11004 12.7802 3.74004 12.7802Z" fill="#292D32"/>
<path d="M15.99 21.1003C14.76 21.6903 13.44 21.9903 12.06 21.9903C10.62 21.9903 9.24998 21.6703 7.96998 21.0203C7.60998 20.8503 7.46998 20.4103 7.64998 20.0503C7.81998 19.6903 8.25998 19.5503 8.61998 19.7203C9.24998 20.0403 9.91998 20.2603 10.6 20.3903C11.52 20.5703 12.46 20.5803 13.38 20.4203C14.06 20.3003 14.73 20.0903 15.35 19.7903C15.72 19.6203 16.16 19.7603 16.32 20.1303C16.5 20.4903 16.36 20.9303 15.99 21.1003Z" fill="#292D32"/>
<path d="M12.05 2.00977C10.5 2.00977 9.22998 3.26977 9.22998 4.82977C9.22998 6.38977 10.49 7.64977 12.05 7.64977C13.61 7.64977 14.87 6.38977 14.87 4.82977C14.87 3.26977 13.61 2.00977 12.05 2.00977Z" fill="#292D32"/>
<path d="M5.04998 13.8701C3.49998 13.8701 2.22998 15.1301 2.22998 16.6901C2.22998 18.2501 3.48998 19.5101 5.04998 19.5101C6.60998 19.5101 7.86998 18.2501 7.86998 16.6901C7.86998 15.1301 6.59998 13.8701 5.04998 13.8701Z" fill="#292D32"/>
<path d="M18.95 13.8701C17.4 13.8701 16.13 15.1301 16.13 16.6901C16.13 18.2501 17.39 19.5101 18.95 19.5101C20.51 19.5101 21.77 18.2501 21.77 16.6901C21.77 15.1301 20.51 13.8701 18.95 13.8701Z" fill="#292D32"/>
</svg>
