<svg width="24" height="25" viewBox="0 0 24 25" fill="none" xmlns="http://www.w3.org/2000/svg">
<path d="M12 2.22754C6.48 2.22754 2 6.70754 2 12.2275C2 17.7475 6.48 22.2275 12 22.2275C17.52 22.2275 22 17.7475 22 12.2275C22 6.70754 17.52 2.22754 12 2.22754ZM15.53 12.2575C15.38 12.4075 15.19 12.4775 15 12.4775C14.81 12.4775 14.62 12.4075 14.47 12.2575L12.75 10.5375V15.7275C12.75 16.1375 12.41 16.4775 12 16.4775C11.59 16.4775 11.25 16.1375 11.25 15.7275V10.5375L9.53 12.2575C9.24 12.5475 8.76 12.5475 8.47 12.2575C8.18 11.9675 8.18 11.4875 8.47 11.1975L11.47 8.19754C11.76 7.90754 12.24 7.90754 12.53 8.19754L15.53 11.1975C15.82 11.4875 15.82 11.9675 15.53 12.2575Z" fill="white"/>
</svg>
