<svg width="25" height="25" viewBox="0 0 25 25" fill="none" xmlns="http://www.w3.org/2000/svg">
<path d="M12.5 2.22754C6.98 2.22754 2.5 6.70754 2.5 12.2275C2.5 17.7475 6.98 22.2275 12.5 22.2275C18.02 22.2275 22.5 17.7475 22.5 12.2275C22.5 6.70754 18.02 2.22754 12.5 2.22754ZM16.03 13.2575L13.03 16.2575C12.88 16.4075 12.69 16.4775 12.5 16.4775C12.31 16.4775 12.12 16.4075 11.97 16.2575L8.97 13.2575C8.68 12.9675 8.68 12.4875 8.97 12.1975C9.26 11.9075 9.74 11.9075 10.03 12.1975L11.75 13.9175V8.72754C11.75 8.31754 12.09 7.97754 12.5 7.97754C12.91 7.97754 13.25 8.31754 13.25 8.72754V13.9175L14.97 12.1975C15.26 11.9075 15.74 11.9075 16.03 12.1975C16.32 12.4875 16.32 12.9675 16.03 13.2575Z" fill="white"/>
</svg>
