<svg width="225" height="15" viewBox="0 0 225 15" fill="none" xmlns="http://www.w3.org/2000/svg">
<path d="M0 15V0H9V3H12V12H9V15H0ZM3 12H8.88V3H3V12ZM18 15V0H27V3H30V6H27V12H30V15H27V12H24V9H21V15H18ZM21 6H26.88V3H21V6ZM36 15V0H45V3H39V6H45V9H39V12H45V15H36ZM51 15V3H54V0H60V3H63V15H60V9H54V15H51ZM54 6H60V3.12H54V6ZM69 15V0H72V3H75V6H78V9H75V6H72V15H69ZM81 15V6H78V3H81V0H84V15H81ZM102 15V0H111V3H105V6H111V9H105V12H111V15H102ZM117 15V0H120V3H123V6H126V9H123V6H120V15H117ZM129 15V6H126V3H129V0H132V15H129ZM138 15V0H141V15H138ZM147 15V0H156V3H159V6H156V12H159V15H156V12H153V9H150V15H147ZM150 6H155.88V3H150V6ZM165 15V3H168V0H174V3H177V15H174V9H168V15H165ZM168 6H174V3.12H168V6ZM186 15V3H183V0H192V3H189V15H186ZM198 15V0H207V3H201V6H207V9H201V12H207V15H198ZM216 3V0H225V3H216ZM222 12V9H216V6H213V3H216V6H222V9H225V12H222ZM213 15V12H222V15H213Z" fill="#111111"/>
</svg>
