<svg width="24" height="25" viewBox="0 0 24 25" fill="none" xmlns="http://www.w3.org/2000/svg">
<path d="M12 4.87744C7.22002 4.87744 3.33002 8.76744 3.33002 13.5474C3.33002 18.3274 7.22002 22.2274 12 22.2274C16.78 22.2274 20.67 18.3374 20.67 13.5574C20.67 8.77744 16.78 4.87744 12 4.87744ZM12.75 13.2274C12.75 13.6374 12.41 13.9774 12 13.9774C11.59 13.9774 11.25 13.6374 11.25 13.2274V8.22744C11.25 7.81744 11.59 7.47744 12 7.47744C12.41 7.47744 12.75 7.81744 12.75 8.22744V13.2274Z" fill="#111111"/>
<path d="M14.89 3.67754H9.11001C8.71001 3.67754 8.39001 3.35754 8.39001 2.95754C8.39001 2.55754 8.71001 2.22754 9.11001 2.22754H14.89C15.29 2.22754 15.61 2.54754 15.61 2.94754C15.61 3.34754 15.29 3.67754 14.89 3.67754Z" fill="#111111"/>
</svg>
