<svg width="24" height="24" viewBox="0 0 24 24" fill="none" xmlns="http://www.w3.org/2000/svg">
<path d="M12 4.65039C7.21996 4.65039 3.32996 8.54039 3.32996 13.3204C3.32996 18.1004 7.21996 22.0004 12 22.0004C16.78 22.0004 20.67 18.1104 20.67 13.3304C20.67 8.55039 16.78 4.65039 12 4.65039ZM12.75 13.0004C12.75 13.4104 12.41 13.7504 12 13.7504C11.59 13.7504 11.25 13.4104 11.25 13.0004V8.00039C11.25 7.59039 11.59 7.25039 12 7.25039C12.41 7.25039 12.75 7.59039 12.75 8.00039V13.0004Z" fill="#111111"/>
<path d="M14.89 3.45H9.11001C8.71001 3.45 8.39001 3.13 8.39001 2.73C8.39001 2.33 8.71001 2 9.11001 2H14.89C15.29 2 15.61 2.32 15.61 2.72C15.61 3.12 15.29 3.45 14.89 3.45Z" fill="#111111"/>
</svg>
